<svg xmlns="http://www.w3.org/2000/svg" xmlns:xlink="http://www.w3.org/1999/xlink" width="220" zoomAndPan="magnify" viewBox="0 0 165 74.999997" height="100" preserveAspectRatio="xMidYMid meet" version="1.0"><defs><clipPath id="83b94edcda"><path d="M 60 61 L 69 61 L 69 74.25 L 60 74.25 Z M 60 61 " clip-rule="nonzero"/></clipPath><clipPath id="a22ecbcc6f"><path d="M 71 61 L 73 61 L 73 74.25 L 71 74.25 Z M 71 61 " clip-rule="nonzero"/></clipPath><clipPath id="1ced5600e3"><path d="M 75 61 L 84 61 L 84 74.25 L 75 74.25 Z M 75 61 " clip-rule="nonzero"/></clipPath><clipPath id="63155394f6"><path d="M 86 61 L 88 61 L 88 74.25 L 86 74.25 Z M 86 61 " clip-rule="nonzero"/></clipPath><clipPath id="72680aa4ac"><path d="M 90 61 L 92 61 L 92 74.25 L 90 74.25 Z M 90 61 " clip-rule="nonzero"/></clipPath><clipPath id="5f6fdf33b7"><path d="M 93 64 L 102 64 L 102 74.25 L 93 74.25 Z M 93 64 " clip-rule="nonzero"/></clipPath><clipPath id="2756ac0b6f"><path d="M 103 62 L 109 62 L 109 74.25 L 103 74.25 Z M 103 62 " clip-rule="nonzero"/></clipPath><clipPath id="c03a47e511"><path d="M 109 64 L 118 64 L 118 74.25 L 109 74.25 Z M 109 64 " clip-rule="nonzero"/></clipPath><clipPath id="d0cac12d3f"><path d="M 120 61 L 127 61 L 127 74.25 L 120 74.25 Z M 120 61 " clip-rule="nonzero"/></clipPath><clipPath id="35c6d4830f"><path d="M 128 64 L 136 64 L 136 74.25 L 128 74.25 Z M 128 64 " clip-rule="nonzero"/></clipPath><clipPath id="ca9746d303"><path d="M 138 64 L 144 64 L 144 74.25 L 138 74.25 Z M 138 64 " clip-rule="nonzero"/></clipPath><clipPath id="b48424b86f"><path d="M 145 64 L 153 64 L 153 74.25 L 145 74.25 Z M 145 64 " clip-rule="nonzero"/></clipPath><clipPath id="085ba2fe3d"><path d="M 154 64 L 162.75 64 L 162.75 74.25 L 154 74.25 Z M 154 64 " clip-rule="nonzero"/></clipPath><clipPath id="b82c28ea89"><path d="M 1 44 L 26 44 L 26 74.25 L 1 74.25 Z M 1 44 " clip-rule="nonzero"/></clipPath><clipPath id="f8ccbb10b6"><path d="M 1 0.75 L 26 0.75 L 26 43 L 1 43 Z M 1 0.75 " clip-rule="nonzero"/></clipPath><clipPath id="425f5c4af5"><path d="M 27 44 L 52 44 L 52 74.25 L 27 74.25 Z M 27 44 " clip-rule="nonzero"/></clipPath><clipPath id="be9f97d356"><path d="M 27 0.75 L 52 0.75 L 52 30 L 27 30 Z M 27 0.75 " clip-rule="nonzero"/></clipPath></defs><path fill="#000000" d="M 60.878906 19.554688 L 70.300781 19.554688 L 70.300781 22.449219 L 65.472656 22.449219 L 65.472656 24.257812 L 69.910156 24.257812 L 69.910156 26.851562 L 65.472656 26.851562 L 65.472656 31.730469 L 60.878906 31.730469 Z M 60.878906 19.554688 " fill-opacity="1" fill-rule="nonzero"/><path fill="#000000" d="M 71.625 25.378906 C 71.78125 22.820312 73.480469 22.175781 76.234375 22.175781 C 79.425781 22.175781 81.285156 23.164062 81.285156 25.347656 L 81.285156 30.121094 C 81.285156 30.765625 81.453125 31.382812 82.03125 31.691406 L 82.03125 31.730469 L 77.59375 31.730469 C 77.476562 31.308594 77.355469 30.417969 77.355469 29.988281 L 77.320312 29.988281 C 76.929688 31.402344 75.382812 31.996094 74.019531 31.996094 C 71.914062 31.996094 71.167969 30.699219 71.167969 29.335938 C 71.167969 24.613281 77.304688 27.304688 77.304688 25.28125 C 77.304688 24.71875 76.898438 24.394531 76.351562 24.394531 C 75.683594 24.394531 75.195312 24.628906 75.195312 25.378906 Z M 77.355469 27.03125 L 77.320312 26.996094 C 76.808594 27.859375 75.144531 27.542969 75.144531 28.816406 C 75.144531 29.3125 75.640625 29.667969 76.113281 29.667969 C 76.914062 29.667969 77.355469 28.988281 77.355469 27.585938 L 77.355469 27.023438 Z M 77.355469 27.03125 " fill-opacity="1" fill-rule="nonzero"/><path fill="#000000" d="M 83.316406 25.378906 C 83.472656 22.820312 85.175781 22.175781 87.925781 22.175781 C 91.121094 22.175781 92.976562 23.164062 92.976562 25.347656 L 92.976562 30.121094 C 92.976562 30.765625 93.148438 31.382812 93.722656 31.691406 L 93.722656 31.730469 L 89.285156 31.730469 C 89.167969 31.308594 89.050781 30.417969 89.050781 29.988281 L 89.011719 29.988281 C 88.621094 31.402344 87.074219 31.996094 85.714844 31.996094 C 83.605469 31.996094 82.859375 30.699219 82.859375 29.335938 C 82.859375 24.613281 89 27.304688 89 25.28125 C 89 24.71875 88.589844 24.394531 88.042969 24.394531 C 87.378906 24.394531 86.890625 24.628906 86.890625 25.378906 Z M 89.050781 27.03125 L 89.011719 26.996094 C 88.503906 27.859375 86.839844 27.542969 86.839844 28.816406 C 86.839844 29.3125 87.332031 29.667969 87.808594 29.667969 C 88.605469 29.667969 89.050781 28.988281 89.050781 27.585938 L 89.050781 27.023438 Z M 89.050781 27.03125 " fill-opacity="1" fill-rule="nonzero"/><path fill="#000000" d="M 99.300781 31.722656 L 94.945312 31.722656 L 94.945312 19.554688 L 99.433594 19.554688 L 99.433594 23.800781 L 99.472656 23.800781 C 99.914062 22.8125 100.949219 22.183594 102.191406 22.183594 C 104.195312 22.183594 105.359375 23.207031 105.359375 26.34375 L 105.359375 27.808594 C 105.359375 30.914062 104.203125 32.003906 102.246094 32.003906 C 100.921875 32.003906 99.898438 31.441406 99.335938 30.234375 L 99.300781 30.234375 L 99.300781 31.730469 Z M 101.039062 26.296875 C 101.039062 25.578125 100.832031 25.207031 100.238281 25.207031 C 99.714844 25.207031 99.402344 25.617188 99.402344 26.296875 L 99.402344 27.867188 C 99.402344 28.617188 99.78125 28.929688 100.203125 28.929688 C 100.765625 28.929688 101.039062 28.585938 101.039062 27.867188 Z M 101.039062 26.296875 " fill-opacity="1" fill-rule="nonzero"/><path fill="#000000" d="M 107.007812 27.082031 C 107.007812 22.992188 108.929688 22.175781 112.230469 22.175781 C 115.527344 22.175781 117.449219 22.992188 117.449219 27.082031 C 117.449219 31.175781 115.527344 31.988281 112.230469 31.988281 C 108.929688 31.988281 107.007812 31.175781 107.007812 27.082031 Z M 111.402344 28.65625 C 111.402344 29.203125 111.726562 29.441406 112.234375 29.441406 C 112.746094 29.441406 113.070312 29.203125 113.070312 28.65625 L 113.070312 25.519531 C 113.070312 24.972656 112.769531 24.734375 112.234375 24.734375 C 111.703125 24.734375 111.402344 24.972656 111.402344 25.519531 Z M 111.402344 28.65625 " fill-opacity="1" fill-rule="nonzero"/><path fill="#000000" d="M 119.292969 22.449219 L 123.542969 22.449219 L 123.542969 24.40625 L 123.582031 24.40625 C 124.210938 22.941406 125.554688 22.175781 127.167969 22.175781 L 127.167969 26.660156 C 126.726562 26.453125 126.25 26.355469 125.757812 26.355469 C 124.5 26.355469 123.683594 27.261719 123.683594 28.230469 L 123.683594 31.722656 L 119.300781 31.722656 L 119.300781 22.449219 Z M 119.292969 22.449219 " fill-opacity="1" fill-rule="nonzero"/><path fill="#000000" d="M 134.484375 22.449219 L 138.699219 22.449219 L 138.699219 31.894531 C 138.699219 34.316406 136.523438 35.539062 133.101562 35.539062 C 130.261719 35.539062 128.457031 34.84375 128.457031 32.234375 L 132.574219 32.234375 C 132.574219 32.746094 132.914062 33.085938 133.441406 33.085938 C 134.015625 33.085938 134.238281 32.589844 134.238281 32.078125 L 134.238281 30.019531 L 134.203125 30.019531 C 133.609375 31.25 132.554688 31.589844 131.230469 31.589844 C 129.03125 31.589844 128.285156 30.292969 128.285156 26.957031 C 128.285156 23.3125 129.171875 22.183594 131.363281 22.183594 C 132.839844 22.183594 133.863281 22.851562 134.4375 24.164062 L 134.476562 24.164062 L 134.476562 22.457031 Z M 134.246094 26.058594 C 134.246094 25.480469 133.957031 25.3125 133.5 25.3125 C 133.042969 25.3125 132.753906 25.480469 132.753906 26.058594 L 132.753906 27.765625 C 132.753906 28.34375 133.042969 28.511719 133.5 28.511719 C 133.957031 28.511719 134.246094 28.34375 134.246094 27.765625 Z M 134.246094 26.058594 " fill-opacity="1" fill-rule="nonzero"/><path fill="#000000" d="M 141.082031 25.691406 L 147.203125 25.691406 L 147.203125 28.484375 L 141.082031 28.484375 Z M 141.082031 25.691406 " fill-opacity="1" fill-rule="nonzero"/><path fill="#000000" d="M 60.839844 38.824219 L 67.453125 38.824219 L 68.472656 46.101562 L 68.511719 46.101562 L 69.6875 38.824219 L 76.152344 38.824219 L 76.152344 50.992188 L 72.304688 50.992188 L 72.304688 41.722656 L 72.269531 41.722656 L 70.464844 50.992188 L 66.523438 50.992188 L 64.71875 41.722656 L 64.679688 41.722656 L 64.679688 50.992188 L 60.835938 50.992188 L 60.835938 38.824219 Z M 60.839844 38.824219 " fill-opacity="1" fill-rule="nonzero"/><path fill="#000000" d="M 78.140625 40.867188 L 78.140625 38.824219 L 82.527344 38.824219 L 82.527344 40.867188 Z M 78.140625 41.722656 L 82.527344 41.722656 L 82.527344 50.992188 L 78.140625 50.992188 Z M 78.140625 41.722656 " fill-opacity="1" fill-rule="nonzero"/><path fill="#000000" d="M 90.441406 49.488281 L 90.402344 49.488281 C 89.839844 50.695312 88.820312 51.257812 87.496094 51.257812 C 85.542969 51.257812 84.382812 50.171875 84.382812 47.066406 L 84.382812 45.597656 C 84.382812 42.460938 85.535156 41.4375 87.546875 41.4375 C 88.789062 41.4375 89.828125 42.070312 90.269531 43.054688 L 90.308594 43.054688 L 90.308594 38.808594 L 94.796875 38.808594 L 94.796875 50.976562 L 90.441406 50.976562 L 90.441406 49.480469 Z M 88.710938 47.101562 C 88.710938 47.820312 88.917969 48.191406 89.507812 48.191406 C 90.035156 48.191406 90.34375 47.785156 90.34375 47.101562 L 90.34375 45.53125 C 90.34375 44.78125 89.96875 44.46875 89.546875 44.46875 C 88.984375 44.46875 88.710938 44.8125 88.710938 45.53125 Z M 88.710938 47.101562 " fill-opacity="1" fill-rule="nonzero"/><path fill="#000000" d="M 97.074219 41.722656 L 97.074219 39.675781 L 101.527344 39.675781 L 101.527344 41.722656 L 103.332031 41.722656 L 103.332031 43.765625 L 101.527344 43.765625 L 101.527344 47.648438 C 101.527344 48.292969 101.96875 48.804688 102.457031 48.804688 L 103.324219 48.804688 L 103.324219 50.984375 L 98.988281 50.984375 C 97.746094 50.984375 97.066406 50.066406 97.066406 49.109375 L 97.066406 43.757812 L 96.164062 43.757812 L 96.164062 41.714844 L 97.066406 41.714844 Z M 97.074219 41.722656 " fill-opacity="1" fill-rule="nonzero"/><path fill="#000000" d="M 103.695312 43.765625 L 103.695312 41.722656 L 104.664062 41.722656 L 104.664062 40.699219 C 104.664062 39.742188 105.34375 38.824219 106.585938 38.824219 L 110.917969 38.824219 L 110.917969 40.800781 L 110.054688 40.800781 C 109.390625 40.800781 109.121094 41.023438 109.121094 41.722656 L 110.925781 41.722656 L 110.925781 43.765625 L 109.121094 43.765625 L 109.121094 50.992188 L 104.671875 50.992188 L 104.671875 43.765625 Z M 103.695312 43.765625 " fill-opacity="1" fill-rule="nonzero"/><path fill="#000000" d="M 115.550781 41.722656 L 116.703125 47.738281 L 116.742188 47.738281 L 117.777344 41.722656 L 122.472656 41.722656 L 118.085938 52.777344 C 117.785156 53.5625 116.636719 54.5 114.816406 54.5 L 112.332031 54.5 L 112.332031 52.488281 L 113.183594 52.488281 C 114.308594 52.488281 114.527344 52.046875 114.527344 51.675781 C 114.527344 51.304688 114.441406 51.097656 114.359375 50.875 L 110.875 41.722656 Z M 115.550781 41.722656 " fill-opacity="1" fill-rule="nonzero"/><path fill="#000000" d="M 123.269531 41.722656 L 127.589844 41.722656 L 127.589844 43.308594 L 127.628906 43.308594 C 128.324219 41.941406 129.195312 41.445312 130.703125 41.445312 C 132.65625 41.445312 133.75 42.707031 133.75 44.597656 L 133.75 50.984375 L 129.292969 50.984375 L 129.292969 45.425781 C 129.292969 44.707031 129.085938 44.46875 128.542969 44.46875 C 127.96875 44.46875 127.730469 44.707031 127.730469 45.546875 L 127.730469 50.984375 L 123.277344 50.984375 L 123.277344 41.714844 Z M 123.269531 41.722656 " fill-opacity="1" fill-rule="nonzero"/><g clip-path="url(#83b94edcda)"><path fill="#000000" d="M 64.242188 61.902344 C 65.738281 61.902344 66.847656 62.132812 67.558594 62.597656 C 68.273438 63.066406 68.628906 63.820312 68.628906 64.867188 C 68.628906 65.332031 68.539062 65.757812 68.355469 66.148438 C 68.171875 66.542969 67.90625 66.851562 67.558594 67.113281 C 67.210938 67.371094 66.773438 67.542969 66.261719 67.632812 L 66.261719 67.683594 C 66.855469 67.773438 67.351562 67.941406 67.757812 68.1875 C 68.164062 68.433594 68.472656 68.75 68.675781 69.152344 C 68.882812 69.550781 68.976562 70.039062 68.976562 70.617188 C 68.976562 71.402344 68.800781 72.046875 68.445312 72.558594 C 68.089844 73.070312 67.585938 73.449219 66.949219 73.703125 C 66.316406 73.953125 65.566406 74.078125 64.71875 74.078125 L 60.871094 74.078125 L 60.871094 61.910156 L 64.234375 61.910156 Z M 64.464844 67.277344 C 65.589844 67.277344 66.394531 67.082031 66.882812 66.699219 C 67.371094 66.3125 67.617188 65.734375 67.617188 64.976562 C 67.617188 64.222656 67.351562 63.628906 66.816406 63.289062 C 66.285156 62.949219 65.425781 62.777344 64.25 62.777344 L 61.871094 62.777344 L 61.871094 67.277344 L 64.472656 67.277344 Z M 61.863281 68.128906 L 61.863281 73.203125 L 64.636719 73.203125 C 65.761719 73.203125 66.589844 72.984375 67.128906 72.53125 C 67.667969 72.078125 67.933594 71.425781 67.933594 70.558594 C 67.933594 69.988281 67.808594 69.527344 67.558594 69.171875 C 67.304688 68.816406 66.929688 68.550781 66.417969 68.378906 C 65.90625 68.210938 65.265625 68.128906 64.480469 68.128906 Z M 61.863281 68.128906 " fill-opacity="1" fill-rule="nonzero"/></g><g clip-path="url(#a22ecbcc6f)"><path fill="#000000" d="M 72.082031 61.652344 C 72.296875 61.652344 72.460938 61.71875 72.578125 61.84375 C 72.699219 61.96875 72.75 62.15625 72.75 62.375 C 72.75 62.613281 72.691406 62.800781 72.578125 62.933594 C 72.46875 63.066406 72.296875 63.125 72.082031 63.125 C 71.867188 63.125 71.707031 63.058594 71.589844 62.933594 C 71.46875 62.804688 71.417969 62.613281 71.417969 62.375 C 71.417969 62.140625 71.476562 61.96875 71.589844 61.84375 C 71.699219 61.71875 71.867188 61.652344 72.082031 61.652344 Z M 72.558594 65.007812 L 72.558594 74.078125 L 71.589844 74.078125 L 71.589844 65.007812 Z M 72.558594 65.007812 " fill-opacity="1" fill-rule="nonzero"/></g><g clip-path="url(#1ced5600e3)"><path fill="#000000" d="M 76.675781 64.703125 C 76.675781 65.03125 76.675781 65.378906 76.660156 65.742188 C 76.648438 66.105469 76.640625 66.410156 76.625 66.644531 L 76.675781 66.644531 C 76.90625 66.121094 77.277344 65.691406 77.800781 65.347656 C 78.324219 65.007812 78.976562 64.835938 79.761719 64.835938 C 80.929688 64.835938 81.839844 65.230469 82.480469 66.023438 C 83.125 66.816406 83.449219 67.980469 83.449219 69.527344 C 83.449219 70.484375 83.304688 71.316406 83.015625 72.019531 C 82.726562 72.722656 82.296875 73.273438 81.726562 73.664062 C 81.160156 74.058594 80.457031 74.25 79.621094 74.25 C 78.859375 74.25 78.246094 74.09375 77.761719 73.777344 C 77.289062 73.457031 76.929688 73.070312 76.691406 72.621094 L 76.625 72.621094 L 76.441406 74.085938 L 75.707031 74.085938 L 75.707031 61.132812 L 76.675781 61.132812 L 76.675781 64.710938 Z M 79.632812 65.675781 C 78.933594 65.675781 78.363281 65.824219 77.933594 66.121094 C 77.503906 66.417969 77.1875 66.847656 76.980469 67.417969 C 76.773438 67.988281 76.675781 68.691406 76.675781 69.527344 L 76.675781 69.648438 C 76.675781 70.863281 76.890625 71.796875 77.328125 72.441406 C 77.761719 73.085938 78.496094 73.414062 79.515625 73.414062 C 80.476562 73.414062 81.210938 73.070312 81.707031 72.398438 C 82.199219 71.722656 82.445312 70.757812 82.445312 69.507812 C 82.445312 68.253906 82.214844 67.277344 81.75 66.632812 C 81.285156 65.984375 80.582031 65.667969 79.640625 65.667969 Z M 79.632812 65.675781 " fill-opacity="1" fill-rule="nonzero"/></g><g clip-path="url(#63155394f6)"><path fill="#000000" d="M 86.085938 61.125 L 87.054688 61.125 L 87.054688 74.078125 L 86.085938 74.078125 Z M 86.085938 61.125 " fill-opacity="1" fill-rule="nonzero"/></g><g clip-path="url(#72680aa4ac)"><path fill="#000000" d="M 90.707031 61.652344 C 90.921875 61.652344 91.082031 61.71875 91.203125 61.84375 C 91.320312 61.96875 91.371094 62.15625 91.371094 62.375 C 91.371094 62.613281 91.3125 62.800781 91.203125 62.933594 C 91.089844 63.066406 90.921875 63.125 90.707031 63.125 C 90.492188 63.125 90.328125 63.058594 90.210938 62.933594 C 90.09375 62.804688 90.039062 62.613281 90.039062 62.375 C 90.039062 62.140625 90.101562 61.96875 90.210938 61.84375 C 90.320312 61.71875 90.492188 61.652344 90.707031 61.652344 Z M 91.1875 65.007812 L 91.1875 74.078125 L 90.21875 74.078125 L 90.21875 65.007812 Z M 91.1875 65.007812 " fill-opacity="1" fill-rule="nonzero"/></g><g clip-path="url(#5f6fdf33b7)"><path fill="#000000" d="M 101.917969 69.527344 C 101.917969 70.246094 101.832031 70.890625 101.652344 71.464844 C 101.476562 72.035156 101.214844 72.53125 100.867188 72.945312 C 100.519531 73.359375 100.097656 73.679688 99.589844 73.910156 C 99.078125 74.140625 98.5 74.25 97.84375 74.25 C 97.183594 74.25 96.660156 74.140625 96.15625 73.917969 C 95.660156 73.695312 95.234375 73.375 94.894531 72.960938 C 94.550781 72.546875 94.277344 72.046875 94.09375 71.46875 C 93.910156 70.894531 93.8125 70.242188 93.8125 69.527344 C 93.8125 68.550781 93.976562 67.714844 94.308594 67.015625 C 94.632812 66.320312 95.105469 65.777344 95.722656 65.40625 C 96.335938 65.039062 97.066406 64.84375 97.917969 64.84375 C 98.769531 64.84375 99.523438 65.039062 100.113281 65.429688 C 100.707031 65.824219 101.148438 66.363281 101.460938 67.066406 C 101.761719 67.765625 101.917969 68.585938 101.917969 69.527344 Z M 94.824219 69.527344 C 94.824219 70.300781 94.9375 70.980469 95.160156 71.566406 C 95.378906 72.152344 95.714844 72.605469 96.164062 72.929688 C 96.617188 73.257812 97.183594 73.417969 97.875 73.417969 C 98.5625 73.417969 99.152344 73.257812 99.597656 72.929688 C 100.046875 72.605469 100.375 72.152344 100.59375 71.566406 C 100.808594 70.980469 100.921875 70.300781 100.921875 69.527344 C 100.921875 68.757812 100.816406 68.113281 100.617188 67.535156 C 100.410156 66.957031 100.09375 66.496094 99.648438 66.171875 C 99.203125 65.84375 98.628906 65.675781 97.910156 65.675781 C 96.890625 65.675781 96.121094 66.015625 95.601562 66.699219 C 95.085938 67.378906 94.824219 68.320312 94.824219 69.527344 Z M 94.824219 69.527344 " fill-opacity="1" fill-rule="nonzero"/></g><g clip-path="url(#2756ac0b6f)"><path fill="#000000" d="M 107.109375 73.414062 C 107.371094 73.414062 107.613281 73.390625 107.84375 73.351562 C 108.074219 73.316406 108.265625 73.265625 108.421875 73.203125 L 108.421875 73.992188 C 108.25 74.058594 108.042969 74.117188 107.792969 74.167969 C 107.539062 74.21875 107.273438 74.242188 106.992188 74.242188 C 106.496094 74.242188 106.066406 74.144531 105.714844 73.960938 C 105.359375 73.777344 105.089844 73.480469 104.90625 73.085938 C 104.722656 72.6875 104.625 72.175781 104.625 71.550781 L 104.625 65.792969 L 103.28125 65.792969 L 103.28125 65.246094 L 104.625 64.917969 L 104.964844 62.835938 L 105.59375 62.835938 L 105.59375 65 L 108.367188 65 L 108.367188 65.785156 L 105.59375 65.785156 L 105.59375 71.5 C 105.59375 72.121094 105.71875 72.597656 105.964844 72.921875 C 106.207031 73.25 106.59375 73.414062 107.109375 73.414062 Z M 107.109375 73.414062 " fill-opacity="1" fill-rule="nonzero"/></g><g clip-path="url(#c03a47e511)"><path fill="#000000" d="M 113.945312 64.835938 C 114.714844 64.835938 115.363281 65.015625 115.882812 65.371094 C 116.40625 65.726562 116.792969 66.222656 117.058594 66.847656 C 117.324219 67.46875 117.449219 68.1875 117.449219 68.996094 L 117.449219 69.664062 L 110.988281 69.664062 C 111 70.871094 111.28125 71.789062 111.835938 72.433594 C 112.390625 73.078125 113.191406 73.398438 114.234375 73.398438 C 114.789062 73.398438 115.277344 73.351562 115.699219 73.25 C 116.121094 73.152344 116.578125 72.996094 117.074219 72.78125 L 117.074219 73.671875 C 116.628906 73.863281 116.1875 74.011719 115.734375 74.109375 C 115.285156 74.207031 114.773438 74.257812 114.195312 74.257812 C 113.285156 74.257812 112.515625 74.070312 111.890625 73.695312 C 111.261719 73.316406 110.777344 72.78125 110.460938 72.085938 C 110.136719 71.390625 109.972656 70.566406 109.972656 69.625 C 109.972656 68.683594 110.128906 67.882812 110.4375 67.164062 C 110.75 66.445312 111.199219 65.875 111.792969 65.46875 C 112.382812 65.058594 113.09375 64.851562 113.9375 64.851562 Z M 113.929688 65.652344 C 113.101562 65.652344 112.4375 65.925781 111.925781 66.484375 C 111.414062 67.03125 111.113281 67.824219 111.023438 68.863281 L 116.453125 68.863281 C 116.453125 68.222656 116.363281 67.667969 116.179688 67.195312 C 115.992188 66.71875 115.71875 66.34375 115.351562 66.066406 C 114.980469 65.792969 114.507812 65.660156 113.929688 65.660156 Z M 113.929688 65.652344 " fill-opacity="1" fill-rule="nonzero"/></g><g clip-path="url(#d0cac12d3f)"><path fill="#000000" d="M 121.023438 67.699219 C 121.023438 68.0625 121.023438 68.4375 121.015625 68.832031 C 121.015625 69.226562 121 69.609375 120.992188 69.980469 L 121.007812 69.980469 C 121.113281 69.871094 121.222656 69.738281 121.339844 69.59375 C 121.460938 69.453125 121.578125 69.304688 121.695312 69.160156 C 121.8125 69.011719 121.933594 68.875 122.042969 68.75 L 125.484375 65 L 126.660156 65 L 123.070312 68.882812 L 126.945312 74.066406 L 125.792969 74.066406 L 122.40625 69.515625 L 121.03125 70.914062 L 121.03125 74.066406 L 120.074219 74.066406 L 120.074219 61.109375 L 121.03125 61.109375 L 121.03125 67.691406 Z M 121.023438 67.699219 " fill-opacity="1" fill-rule="nonzero"/></g><g clip-path="url(#35c6d4830f)"><path fill="#000000" d="M 132.078125 64.835938 C 132.847656 64.835938 133.5 65.015625 134.015625 65.371094 C 134.542969 65.726562 134.925781 66.222656 135.195312 66.847656 C 135.460938 67.46875 135.585938 68.1875 135.585938 68.996094 L 135.585938 69.664062 L 129.121094 69.664062 C 129.136719 70.871094 129.417969 71.789062 129.972656 72.433594 C 130.527344 73.078125 131.324219 73.398438 132.367188 73.398438 C 132.921875 73.398438 133.410156 73.351562 133.832031 73.25 C 134.253906 73.152344 134.710938 72.996094 135.207031 72.78125 L 135.207031 73.671875 C 134.765625 73.863281 134.320312 74.011719 133.871094 74.109375 C 133.417969 74.207031 132.90625 74.257812 132.332031 74.257812 C 131.421875 74.257812 130.652344 74.070312 130.023438 73.695312 C 129.394531 73.316406 128.914062 72.78125 128.597656 72.085938 C 128.269531 71.390625 128.109375 70.566406 128.109375 69.625 C 128.109375 68.683594 128.261719 67.882812 128.574219 67.164062 C 128.882812 66.445312 129.335938 65.875 129.925781 65.46875 C 130.519531 65.058594 131.230469 64.851562 132.074219 64.851562 Z M 132.066406 65.652344 C 131.238281 65.652344 130.570312 65.925781 130.0625 66.484375 C 129.550781 67.03125 129.246094 67.824219 129.160156 68.863281 L 134.585938 68.863281 C 134.585938 68.222656 134.5 67.667969 134.3125 67.195312 C 134.128906 66.71875 133.855469 66.34375 133.484375 66.066406 C 133.113281 65.792969 132.640625 65.660156 132.066406 65.660156 Z M 132.066406 65.652344 " fill-opacity="1" fill-rule="nonzero"/></g><g clip-path="url(#ca9746d303)"><path fill="#000000" d="M 141.929688 64.851562 C 142.144531 64.851562 142.359375 64.867188 142.566406 64.890625 C 142.773438 64.910156 142.972656 64.949219 143.152344 64.992188 L 142.996094 65.898438 C 142.8125 65.851562 142.632812 65.816406 142.449219 65.785156 C 142.265625 65.757812 142.070312 65.742188 141.871094 65.742188 C 141.449219 65.742188 141.082031 65.824219 140.746094 65.980469 C 140.414062 66.132812 140.132812 66.363281 139.898438 66.660156 C 139.660156 66.957031 139.476562 67.304688 139.351562 67.71875 C 139.222656 68.128906 139.164062 68.585938 139.164062 69.097656 L 139.164062 74.078125 L 138.195312 74.078125 L 138.195312 65.007812 L 139.011719 65.007812 L 139.113281 66.699219 L 139.164062 66.699219 C 139.320312 66.355469 139.527344 66.046875 139.785156 65.769531 C 140.046875 65.488281 140.347656 65.273438 140.703125 65.105469 C 141.058594 64.941406 141.464844 64.859375 141.917969 64.859375 Z M 141.929688 64.851562 " fill-opacity="1" fill-rule="nonzero"/></g><g clip-path="url(#b48424b86f)"><path fill="#000000" d="M 149.128906 64.835938 C 150.15625 64.835938 150.945312 65.105469 151.496094 65.628906 C 152.042969 66.15625 152.308594 66.992188 152.308594 68.144531 L 152.308594 74.070312 L 151.355469 74.070312 L 151.355469 68.210938 C 151.355469 67.335938 151.152344 66.691406 150.761719 66.28125 C 150.363281 65.875 149.785156 65.667969 149.023438 65.667969 C 148.027344 65.667969 147.277344 65.957031 146.789062 66.535156 C 146.300781 67.113281 146.050781 67.980469 146.050781 69.128906 L 146.050781 74.070312 L 145.082031 74.070312 L 145.082031 65 L 145.867188 65 L 146 66.570312 L 146.066406 66.570312 C 146.234375 66.230469 146.464844 65.925781 146.746094 65.667969 C 147.027344 65.40625 147.367188 65.199219 147.765625 65.050781 C 148.167969 64.902344 148.617188 64.828125 149.128906 64.828125 Z M 149.128906 64.835938 " fill-opacity="1" fill-rule="nonzero"/></g><g clip-path="url(#085ba2fe3d)"><path fill="#000000" d="M 158.816406 64.835938 C 159.585938 64.835938 160.238281 65.015625 160.753906 65.371094 C 161.277344 65.726562 161.664062 66.222656 161.929688 66.847656 C 162.195312 67.46875 162.320312 68.1875 162.320312 68.996094 L 162.320312 69.664062 L 155.859375 69.664062 C 155.871094 70.871094 156.152344 71.789062 156.707031 72.433594 C 157.261719 73.078125 158.0625 73.398438 159.105469 73.398438 C 159.660156 73.398438 160.148438 73.351562 160.570312 73.25 C 160.992188 73.152344 161.449219 72.996094 161.945312 72.78125 L 161.945312 73.671875 C 161.5 73.863281 161.058594 74.011719 160.605469 74.109375 C 160.15625 74.207031 159.644531 74.257812 159.066406 74.257812 C 158.15625 74.257812 157.390625 74.070312 156.761719 73.695312 C 156.132812 73.316406 155.652344 72.78125 155.332031 72.085938 C 155.007812 71.390625 154.84375 70.566406 154.84375 69.625 C 154.84375 68.683594 155 67.882812 155.3125 67.164062 C 155.621094 66.445312 156.074219 65.875 156.664062 65.46875 C 157.253906 65.058594 157.964844 64.851562 158.808594 64.851562 Z M 158.800781 65.652344 C 157.972656 65.652344 157.308594 65.925781 156.796875 66.484375 C 156.285156 67.03125 155.984375 67.824219 155.894531 68.863281 L 161.324219 68.863281 C 161.324219 68.222656 161.234375 67.667969 161.050781 67.195312 C 160.863281 66.71875 160.589844 66.34375 160.222656 66.066406 C 159.851562 65.792969 159.378906 65.660156 158.800781 65.660156 Z M 158.800781 65.652344 " fill-opacity="1" fill-rule="nonzero"/></g><g clip-path="url(#b82c28ea89)"><path fill="#fcb041" d="M 16.273438 55.476562 L 11.871094 55.476562 L 11.871094 64.164062 L 7.640625 64.164062 L 7.640625 44.863281 L 1.179688 44.863281 L 1.179688 74.125 L 25.238281 74.125 L 25.238281 64.164062 L 16.273438 64.164062 Z M 16.273438 55.476562 " fill-opacity="1" fill-rule="nonzero"/></g><path fill="#fcb041" d="M 27.558594 32.855469 L 51.617188 32.855469 L 51.617188 42.113281 L 27.558594 42.113281 Z M 27.558594 32.855469 " fill-opacity="1" fill-rule="nonzero"/><g clip-path="url(#f8ccbb10b6)"><path fill="#fcb041" d="M 1.179688 14.921875 L 13.722656 21.058594 L 10.703125 22.449219 L 1.179688 27.171875 L 1.179688 42.113281 L 25.238281 42.113281 L 25.238281 32.855469 L 10 32.855469 L 15.394531 30.152344 L 25.238281 25.164062 L 25.238281 18.902344 L 15.394531 13.949219 L 10.046875 11.207031 L 25.238281 11.207031 L 25.238281 0.875 L 1.179688 0.875 Z M 1.179688 14.921875 " fill-opacity="1" fill-rule="nonzero"/></g><g clip-path="url(#425f5c4af5)"><path fill="#fcb041" d="M 45.257812 44.773438 L 44.953125 44.773438 C 42.601562 44.773438 40.695312 47.085938 40.097656 50.660156 L 39.585938 53.710938 L 39.074219 50.660156 C 38.476562 47.085938 36.574219 44.773438 34.214844 44.773438 L 33.914062 44.773438 C 29.984375 44.773438 27.550781 48.589844 27.550781 54.726562 L 27.550781 74.125 L 51.609375 74.125 L 51.609375 54.726562 C 51.609375 48.582031 49.171875 44.773438 45.25 44.773438 Z M 38.4375 64.59375 L 33.59375 64.59375 L 33.59375 59.414062 C 33.59375 57.691406 33.859375 55.714844 35.960938 55.714844 L 36.074219 55.714844 C 38.171875 55.714844 38.4375 57.691406 38.4375 59.414062 Z M 45.582031 64.59375 L 40.738281 64.59375 L 40.738281 59.414062 C 40.738281 57.691406 41.003906 55.714844 43.105469 55.714844 L 43.21875 55.714844 C 45.316406 55.714844 45.582031 57.691406 45.582031 59.414062 Z M 45.582031 64.59375 " fill-opacity="1" fill-rule="nonzero"/></g><g clip-path="url(#be9f97d356)"><path fill="#fcb041" d="M 51.617188 10.378906 C 51.617188 4.441406 49.179688 0.75 45.257812 0.75 L 44.953125 0.75 C 42.601562 0.75 40.695312 2.980469 40.097656 6.433594 L 39.585938 9.382812 L 39.074219 6.433594 C 38.476562 2.980469 36.574219 0.75 34.214844 0.75 L 33.914062 0.75 C 29.984375 0.75 27.550781 4.441406 27.550781 10.378906 L 27.550781 29.121094 L 51.609375 29.121094 L 51.609375 10.378906 Z M 38.4375 19.910156 L 33.59375 19.910156 L 33.59375 14.898438 C 33.59375 13.230469 33.859375 11.328125 35.960938 11.328125 L 36.074219 11.328125 C 38.171875 11.328125 38.4375 13.238281 38.4375 14.898438 Z M 45.582031 19.910156 L 40.738281 19.910156 L 40.738281 14.898438 C 40.738281 13.230469 41.003906 11.328125 43.105469 11.328125 L 43.21875 11.328125 C 45.316406 11.328125 45.582031 13.238281 45.582031 14.898438 Z M 45.582031 19.910156 " fill-opacity="1" fill-rule="nonzero"/></g></svg>